<?xml version="1.0" encoding="UTF-8"?><svg id="a" xmlns="http://www.w3.org/2000/svg" viewBox="0 0 3000 1500"><defs><style>.b{fill:#fff;}</style></defs><g><path class="b" d="M401.52,307.03c-45.4-43-105.57-66.98-168.12-66.98H74.82c109.53,103.72,260.1,246.36,395.68,374.78l-33.11,34.46c-19.4,20.22-18.55,52.38,1.9,71.53l34.84,30.91c-5.63-23.73,3-39.85,15.74-50.66,17.74-15.14,43.5-20,49.58-20.95,.85-.15,1.33-.2,1.33-.2l-46.9-43.5-12.26-11.39-10.91-10.11v-26.18c0-31.86,25.85-37.94,57.72-37.94h130.5l-257.39-243.78Z"/><path class="b" d="M1378.71,657.71c-77.44-297.06-329.2-440.1-625.41-417.65l194.2,183.91-41.32,39.12-164.79-156.05c-45.4-43-105.57-66.98-168.12-66.98h-159.83l328.12,310.75h60.89c0,29.08-11.79,50.51-30.86,64.62-15.57,11.54-35.99,18.25-58.82,20.3l46.53,44.58-214.67,204.06-.12-.43L74.82,1328.77h242.83c62.55,0,122.72-23.98,168.12-66.98l292.71-277.22,41.3,39.14c-35.72,33.84-293.68,278.17-322.09,305.05h159.83c62.55,0,122.72-23.98,168.12-66.98l122.77-116.26,41.32,39.12-152.17,144.11c87.75,1.63,173.22-17.57,247.66-53.69l.25,.25,.63-.68h.03c224.28-104.89,354.28-370.52,292.61-616.95Z"/><path class="b" d="M545.51,608.65c-.5,1.98-.75,4.03-.75,6.13,0,9.04,4.58,16.97,11.56,21.65,4.13,2.78,9.11,4.38,14.47,4.38s10.36-1.6,14.49-4.38c6.96-4.68,11.54-12.61,11.54-21.65,0-6.78-2.58-12.94-6.83-17.57-4.76-5.21-11.59-8.46-19.2-8.46-12.26,0-22.55,8.48-25.28,19.9Z"/></g><g><path class="b" d="M2341.54,383.18c-29.33-16.11-64.87-24.18-106.61-24.18s-76.76,8.2-108.19,24.57c-31.44,16.39-55.88,39.9-73.32,70.55-17.44,30.65-26.16,67.65-26.16,110.97s8.72,80.33,26.16,110.97c17.44,30.65,42.13,54.17,74.11,70.54,31.97,16.39,69.88,24.57,113.74,24.57,27.47,0,53.76-3.96,78.87-11.89,25.09-7.93,46.77-19.68,65-35.27,18.23-15.58,31.04-34.74,38.44-57.47l-107.8-35.67c-5.82,14.27-14.66,25.36-26.55,33.29-11.89,7.93-27.88,11.89-47.95,11.89-17.97,0-33.29-3.57-45.97-10.7-12.68-7.13-22.47-18.75-29.33-34.88-3.81-8.93-6.56-19.37-8.26-31.31h270.61c1.05-6.34,1.85-14.27,2.38-23.78,.52-9.51,.79-19.02,.79-28.53,0-36.46-7.67-68.82-22.99-97.1-15.33-28.26-37.65-50.46-66.98-66.58Zm-149.81,82.04c11.89-7.93,26.28-11.89,43.2-11.89,23.78,0,41.34,8.46,52.71,25.36,8.22,12.24,13.45,28.37,15.72,48.35h-144.75c1.49-9.07,3.55-17.27,6.17-24.57,6.07-16.91,15.06-29.33,26.95-37.25Z"/><polygon class="b" points="2782.5 763.25 2925.18 366.93 2785.67 366.93 2702.45 668.92 2620.81 366.93 2478.93 366.93 2621.6 763.25 2782.5 763.25"/><path class="b" d="M1826.99,939.21c-20.35-10.56-44.26-15.85-71.73-15.85s-53.64,6.74-75.3,20.21c-21.67,13.47-38.32,33.43-49.94,59.84v-177.08h-134.75v501.27h134.75v-208.46c0-22.19,3.17-40.15,9.51-53.9,6.34-13.73,15.06-23.78,26.16-30.12,11.1-6.34,22.99-9.51,35.67-9.51,16.9,0,30.51,5.43,40.82,16.25,10.3,10.84,15.46,30.52,15.46,59.05v226.69h134.75v-263.95c0-31.17-5.82-57.07-17.44-77.68-11.63-20.61-27.62-36.19-47.95-46.77Z"/><path class="b" d="M2254.61,1143.71c0,15.33-1.72,28.67-5.15,40.03-3.44,11.37-8.32,20.61-14.66,27.74-6.34,7.13-13.75,12.42-22.19,15.85-8.46,3.44-17.44,5.15-26.95,5.15-18.5,0-32.77-5.02-42.8-15.06-10.04-10.03-15.06-27.74-15.06-53.11v-233.03h-134.75v264.74c0,33.29,5.81,60.24,17.44,80.85,11.62,20.61,27.61,35.54,47.95,44.78,20.34,9.24,43.99,13.87,70.94,13.87,32.23,0,59.71-6.74,82.43-20.21,22.71-13.47,40.42-34.21,53.11-62.22l3.96,74.51h120.48v-396.32h-134.75v212.42Z"/><path class="b" d="M2831.25,947.93c-24.05-16.37-51.4-24.57-82.04-24.57-38.58,0-69.23,10.7-91.94,32.1-13.58,12.78-24.39,27.61-32.5,44.45v-173.58h-134.75v501.27h118.1l4.35-87.49c3.95,10.6,8.81,20.62,14.67,30.03,12.68,20.35,28.93,36.34,48.75,47.95,19.82,11.62,42.67,17.44,68.56,17.44,32.76,0,61.29-8.05,85.6-24.18,24.3-16.11,43.32-39.5,57.07-70.15,13.73-30.64,20.61-67.37,20.61-110.18s-6.74-81.24-20.21-112.16c-13.47-30.91-32.24-54.56-56.27-70.94Zm-78.87,262.76c-13.21,17.18-31.44,25.76-54.69,25.76-14.8,0-27.74-4.09-38.84-12.29-11.1-8.19-19.56-20.21-25.36-36.07-5.82-15.85-8.72-35.14-8.72-57.86s2.9-42.01,8.72-57.86c5.81-15.85,14.13-28.14,24.97-36.86,10.82-8.72,23.9-13.08,39.23-13.08,23.25,0,41.48,8.6,54.69,25.76,13.2,17.18,19.82,44.26,19.82,81.24s-6.61,64.08-19.82,81.24Z"/><path class="b" d="M1734.34,242.34h-239.07v117.56h219.34c38.92,0,66,11.71,81.27,35.11,15.25,23.41,22.88,59.31,22.88,107.7s-7.63,84.3-22.88,107.7c-15.26,23.41-42.35,35.11-81.27,35.11h-58.38v-197.48h0c-88.89,0-160.95,72.06-160.95,160.95v154.09h239.07c81.52,0,143.6-22.75,186.2-68.25,42.6-45.49,63.91-109.54,63.91-192.12s-21.3-147.27-63.91-192.52c-42.61-45.23-104.68-67.85-186.2-67.85Z"/></g></svg>