<?xml version="1.0" encoding="UTF-8"?><svg id="a" xmlns="http://www.w3.org/2000/svg" viewBox="0 0 1080 1080"><g><path d="M164.16,375.9c-15.53-14.71-36.12-22.92-57.52-22.92H52.38c37.47,35.49,88.99,84.29,135.38,128.23l-11.33,11.79c-6.64,6.92-6.35,17.92,.65,24.47l11.92,10.58c-1.93-8.12,1.03-13.63,5.39-17.33,6.07-5.18,14.88-6.84,16.96-7.17,.29-.05,.45-.07,.45-.07l-16.05-14.88-4.2-3.9-3.73-3.46v-8.96c0-10.9,8.85-12.98,19.75-12.98h44.65l-88.07-83.41Z"/><path d="M498.5,495.88c-26.5-101.64-112.63-150.58-213.98-142.9l66.44,62.92-14.14,13.38-56.38-53.39c-15.53-14.71-36.12-22.92-57.52-22.92h-54.69l112.27,106.32h20.83c0,9.95-4.03,17.28-10.56,22.11-5.33,3.95-12.31,6.24-20.12,6.94l15.92,15.25-73.45,69.82-.04-.15L52.38,725.49h83.08c21.4,0,41.99-8.2,57.52-22.92l100.15-94.85,14.13,13.39c-12.22,11.58-100.48,95.17-110.2,104.37h54.69c21.4,0,41.99-8.2,57.52-22.92l42-39.78,14.14,13.38-52.07,49.31c30.02,.56,59.27-6.01,84.73-18.37l.09,.09,.21-.23h0c76.74-35.89,121.21-126.77,100.11-211.09Z"/><path d="M213.43,479.1c-.17,.68-.26,1.38-.26,2.1,0,3.09,1.57,5.81,3.96,7.41,1.41,.95,3.12,1.5,4.95,1.5s3.55-.55,4.96-1.5c2.38-1.6,3.95-4.32,3.95-7.41,0-2.32-.88-4.43-2.34-6.01-1.63-1.78-3.96-2.89-6.57-2.89-4.2,0-7.72,2.9-8.65,6.81Z"/></g><g><path d="M827.93,401.96c-10.03-5.51-22.2-8.27-36.48-8.27s-26.26,2.81-37.02,8.41c-10.76,5.61-19.12,13.65-25.09,24.14-5.97,10.49-8.95,23.14-8.95,37.97s2.98,27.48,8.95,37.97c5.97,10.49,14.42,18.53,25.36,24.14,10.94,5.61,23.91,8.41,38.92,8.41,9.4,0,18.39-1.36,26.98-4.07,8.59-2.71,16-6.73,22.24-12.07,6.24-5.33,10.62-11.89,13.15-19.66l-36.88-12.2c-1.99,4.88-5.02,8.68-9.08,11.39-4.07,2.71-9.54,4.07-16.41,4.07-6.15,0-11.39-1.22-15.73-3.66s-7.69-6.42-10.03-11.93c-1.3-3.06-2.24-6.63-2.82-10.71h92.59c.36-2.17,.63-4.88,.81-8.14,.18-3.25,.27-6.51,.27-9.76,0-12.47-2.62-23.55-7.86-33.22-5.25-9.67-12.88-17.26-22.92-22.78Zm-51.26,28.07c4.07-2.71,8.99-4.07,14.78-4.07,8.14,0,14.14,2.89,18.03,8.68,2.81,4.19,4.6,9.71,5.38,16.54h-49.53c.51-3.1,1.21-5.91,2.11-8.41,2.08-5.78,5.15-10.03,9.22-12.75Z"/><polygon points="978.8 531.99 1027.62 396.4 979.89 396.4 951.41 499.72 923.48 396.4 874.93 396.4 923.75 531.99 978.8 531.99"/><path d="M651.88,592.2c-6.96-3.61-15.14-5.42-24.54-5.42s-18.35,2.31-25.76,6.92c-7.42,4.61-13.11,11.44-17.09,20.48v-60.59h-46.1v171.51h46.1v-71.32c0-7.59,1.08-13.74,3.25-18.44,2.17-4.7,5.15-8.14,8.95-10.31s7.86-3.25,12.2-3.25c5.78,0,10.44,1.86,13.97,5.56,3.53,3.71,5.29,10.44,5.29,20.2v77.56h46.1v-90.31c0-10.67-1.99-19.53-5.97-26.58-3.98-7.05-9.45-12.38-16.41-16Z"/><path d="M798.19,662.17c0,5.25-.59,9.81-1.76,13.7-1.18,3.89-2.85,7.05-5.02,9.49-2.17,2.44-4.7,4.25-7.59,5.42-2.89,1.18-5.97,1.76-9.22,1.76-6.33,0-11.21-1.72-14.65-5.15-3.44-3.43-5.15-9.49-5.15-18.17v-79.73h-46.1v90.58c0,11.39,1.99,20.61,5.97,27.66,3.97,7.05,9.45,12.16,16.41,15.32,6.96,3.16,15.05,4.75,24.27,4.75,11.03,0,20.43-2.31,28.2-6.92,7.77-4.61,13.83-11.7,18.17-21.29l1.36,25.49h41.22v-135.6h-46.1v72.68Z"/><path d="M995.48,595.18c-8.23-5.6-17.59-8.41-28.07-8.41-13.2,0-23.69,3.66-31.46,10.98-4.65,4.37-8.35,9.45-11.12,15.21v-59.39h-46.1v171.51h40.41l1.49-29.94c1.35,3.63,3.01,7.06,5.02,10.27,4.34,6.96,9.9,12.43,16.68,16.41,6.78,3.98,14.6,5.97,23.46,5.97,11.21,0,20.97-2.75,29.29-8.27,8.31-5.51,14.82-13.51,19.53-24,4.7-10.48,7.05-23.05,7.05-37.7s-2.31-27.8-6.92-38.37c-4.61-10.58-11.03-18.67-19.25-24.27Zm-26.98,89.9c-4.52,5.88-10.76,8.81-18.71,8.81-5.06,0-9.49-1.4-13.29-4.2-3.8-2.8-6.69-6.92-8.68-12.34-1.99-5.42-2.98-12.02-2.98-19.8s.99-14.37,2.98-19.8c1.99-5.42,4.83-9.63,8.54-12.61,3.7-2.98,8.18-4.47,13.42-4.47,7.95,0,14.19,2.94,18.71,8.81,4.52,5.88,6.78,15.14,6.78,27.8s-2.26,21.92-6.78,27.8Z"/><path d="M620.18,353.77h-81.8v40.22h75.05c13.32,0,22.58,4.01,27.81,12.01,5.22,8.01,7.83,20.29,7.83,36.85s-2.61,28.84-7.83,36.85c-5.22,8.01-14.49,12.01-27.81,12.01h-19.98v-67.57h0c-30.41,0-55.07,24.66-55.07,55.07v52.72h81.8c27.89,0,49.13-7.78,63.71-23.35,14.58-15.56,21.87-37.48,21.87-65.73s-7.29-50.39-21.87-65.87c-14.58-15.48-35.82-23.22-63.71-23.22Z"/></g></svg>