<?xml version="1.0" encoding="UTF-8"?><svg id="a" xmlns="http://www.w3.org/2000/svg" viewBox="0 0 1080 1080"><defs><style>.b{fill:#ceff1a;}.c{fill:#161616;}</style></defs><rect class="b" x="0" y="0" width="1080" height="1080"/><g><g><path class="c" d="M276.55,424.97c-10.89-10.31-25.32-16.06-40.32-16.06h-38.03c26.27,24.87,62.38,59.08,94.89,89.88l-7.94,8.27c-4.65,4.85-4.45,12.56,.46,17.16l8.36,7.41c-1.35-5.69,.72-9.56,3.78-12.15,4.26-3.63,10.43-4.8,11.89-5.02,.2-.04,.32-.05,.32-.05l-11.25-10.43-2.94-2.73-2.62-2.43v-6.28c0-7.64,6.2-9.1,13.84-9.1h31.3l-61.73-58.46Z"/><path class="c" d="M510.91,509.08c-18.57-71.24-78.95-105.55-149.99-100.16l46.57,44.11-9.91,9.38-39.52-37.43c-10.89-10.31-25.32-16.06-40.32-16.06h-38.33l78.69,74.53h14.6c0,6.97-2.83,12.11-7.4,15.5-3.73,2.77-8.63,4.38-14.11,4.87l11.16,10.69-51.48,48.94-.03-.1-112.64,106.68h58.24c15,0,29.43-5.75,40.32-16.06l70.2-66.48,9.9,9.39c-8.57,8.12-70.43,66.71-77.25,73.16h38.33c15,0,29.43-5.75,40.32-16.06l29.44-27.88,9.91,9.38-36.5,34.56c21.04,.39,41.54-4.21,59.4-12.88l.06,.06,.15-.16h0c53.79-25.16,84.97-88.86,70.18-147.96Z"/><path class="c" d="M311.09,497.31c-.12,.47-.18,.97-.18,1.47,0,2.17,1.1,4.07,2.77,5.19,.99,.67,2.18,1.05,3.47,1.05s2.49-.38,3.48-1.05c1.67-1.12,2.77-3.03,2.77-5.19,0-1.63-.62-3.1-1.64-4.21-1.14-1.25-2.78-2.03-4.6-2.03-2.94,0-5.41,2.03-6.06,4.77Z"/></g><g><path class="c" d="M741.83,443.24c-7.03-3.86-15.56-5.8-25.57-5.8s-18.41,1.97-25.95,5.89c-7.54,3.93-13.4,9.57-17.58,16.92-4.18,7.35-6.27,16.22-6.27,26.61s2.09,19.26,6.27,26.61c4.18,7.35,10.11,12.99,17.77,16.92,7.67,3.93,16.76,5.89,27.28,5.89,6.59,0,12.89-.95,18.91-2.85,6.02-1.9,11.22-4.72,15.59-8.46,4.37-3.74,7.44-8.33,9.22-13.78l-25.85-8.55c-1.4,3.42-3.52,6.08-6.37,7.98-2.85,1.9-6.69,2.85-11.5,2.85-4.31,0-7.98-.86-11.03-2.57s-5.39-4.5-7.03-8.36c-.91-2.14-1.57-4.65-1.98-7.51h64.9c.25-1.52,.44-3.42,.57-5.7,.12-2.28,.19-4.56,.19-6.84,0-8.74-1.84-16.51-5.51-23.29-3.68-6.78-9.03-12.1-16.06-15.97Zm-35.93,19.68c2.85-1.9,6.3-2.85,10.36-2.85,5.7,0,9.91,2.03,12.64,6.08,1.97,2.94,3.23,6.8,3.77,11.6h-34.72c.36-2.18,.85-4.14,1.48-5.89,1.46-4.05,3.61-7.03,6.46-8.93Z"/><polygon class="c" points="847.58 534.39 881.8 439.34 848.34 439.34 828.38 511.77 808.8 439.34 774.77 439.34 808.99 534.39 847.58 534.39"/><path class="c" d="M618.42,576.59c-4.88-2.53-10.62-3.8-17.2-3.8s-12.86,1.62-18.06,4.85c-5.2,3.23-9.19,8.02-11.98,14.35v-42.47h-32.32v120.22h32.32v-50c0-5.32,.76-9.63,2.28-12.93,1.52-3.29,3.61-5.7,6.27-7.22s5.51-2.28,8.55-2.28c4.05,0,7.32,1.3,9.79,3.9,2.47,2.6,3.71,7.32,3.71,14.16v54.37h32.32v-63.3c0-7.48-1.4-13.69-4.18-18.63-2.79-4.94-6.62-8.68-11.5-11.22Z"/><path class="c" d="M720.98,625.63c0,3.68-.41,6.88-1.24,9.6-.83,2.73-2,4.94-3.52,6.65-1.52,1.71-3.3,2.98-5.32,3.8-2.03,.83-4.18,1.24-6.46,1.24-4.44,0-7.86-1.2-10.27-3.61-2.41-2.41-3.61-6.65-3.61-12.74v-55.89h-32.32v63.49c0,7.98,1.39,14.45,4.18,19.39,2.79,4.94,6.62,8.52,11.5,10.74,4.88,2.22,10.55,3.33,17.01,3.33,7.73,0,14.32-1.62,19.77-4.85,5.45-3.23,9.69-8.2,12.74-14.92l.95,17.87h28.89v-95.05h-32.32v50.95Z"/><path class="c" d="M859.27,578.68c-5.77-3.93-12.33-5.89-19.68-5.89-9.25,0-16.6,2.57-22.05,7.7-3.26,3.07-5.85,6.62-7.79,10.66v-41.63h-32.32v120.22h28.32l1.04-20.98c.95,2.54,2.11,4.95,3.52,7.2,3.04,4.88,6.94,8.71,11.69,11.5,4.75,2.79,10.23,4.18,16.44,4.18,7.86,0,14.7-1.93,20.53-5.8,5.83-3.86,10.39-9.47,13.69-16.82,3.29-7.35,4.94-16.16,4.94-26.42s-1.62-19.48-4.85-26.9c-3.23-7.41-7.73-13.08-13.5-17.01Zm-18.92,63.02c-3.17,4.12-7.54,6.18-13.12,6.18-3.55,0-6.65-.98-9.31-2.95-2.66-1.96-4.69-4.85-6.08-8.65-1.4-3.8-2.09-8.43-2.09-13.88s.7-10.08,2.09-13.88c1.39-3.8,3.39-6.75,5.99-8.84,2.6-2.09,5.73-3.14,9.41-3.14,5.58,0,9.95,2.06,13.12,6.18,3.17,4.12,4.75,10.62,4.75,19.48s-1.59,15.37-4.75,19.48Z"/><path class="c" d="M596.2,409.46h-57.33v28.19h52.6c9.33,0,15.83,2.81,19.49,8.42,3.66,5.61,5.49,14.22,5.49,25.83s-1.83,20.22-5.49,25.83c-3.66,5.61-10.16,8.42-19.49,8.42h-14v-47.36h0c-21.32,0-38.6,17.28-38.6,38.6v36.96h57.33c19.55,0,34.44-5.46,44.66-16.37,10.22-10.91,15.33-26.27,15.33-46.08s-5.11-35.32-15.33-46.17c-10.22-10.85-25.1-16.27-44.66-16.27Z"/></g></g></svg>