<?xml version="1.0" encoding="UTF-8"?><svg id="a" xmlns="http://www.w3.org/2000/svg" viewBox="0 0 1080 1080"><path d="M296.79,183.46c-33.99-32.19-79.03-50.14-125.85-50.14H52.23c81.99,77.64,194.7,184.42,296.2,280.55l-24.79,25.8c-14.52,15.14-13.88,39.21,1.42,53.55l26.08,23.14c-4.22-17.76,2.25-29.83,11.79-37.92,13.28-11.34,32.56-14.97,37.12-15.68,.64-.11,.99-.15,.99-.15l-35.11-32.56-9.18-8.52-8.17-7.57v-19.6c0-23.85,19.35-28.4,43.21-28.4h97.69l-192.68-182.49Z"/><path d="M1028.3,445.97c-57.97-222.38-246.43-329.45-468.18-312.65l145.37,137.67-30.93,29.28-123.36-116.82c-33.99-32.19-79.03-50.14-125.85-50.14h-119.65l245.63,232.63h45.58c0,21.77-8.82,37.81-23.1,48.38-11.65,8.64-26.94,13.66-44.03,15.19l34.83,33.37-160.7,152.75-.09-.32L52.23,948.32H234.01c46.82,0,91.86-17.95,125.85-50.14l219.12-207.52,30.91,29.3c-26.74,25.33-219.85,208.23-241.11,228.35h119.65c46.82,0,91.86-17.95,125.85-50.14l91.9-87.03,30.93,29.28-113.91,107.88c65.69,1.22,129.67-13.15,185.39-40.19l.19,.19,.47-.51h.02c167.89-78.52,265.21-277.37,219.04-461.84Z"/><path d="M404.58,409.25c-.38,1.48-.56,3.02-.56,4.59,0,6.76,3.43,12.7,8.66,16.21,3.09,2.08,6.82,3.28,10.83,3.28s7.76-1.2,10.85-3.28c5.21-3.5,8.64-9.44,8.64-16.21,0-5.08-1.93-9.69-5.11-13.15-3.56-3.9-8.67-6.33-14.37-6.33-9.18,0-16.88,6.35-18.92,14.9Z"/></svg>