<?xml version="1.0" encoding="UTF-8"?><svg id="a" xmlns="http://www.w3.org/2000/svg" viewBox="0 0 1080 1080"><defs><style>.b{fill:#fff;}</style></defs><rect width="1080" height="1080"/><g><path class="b" d="M393.87,322.34c-20.75-19.65-48.24-30.61-76.83-30.61h-72.47c50.05,47.4,118.86,112.58,180.82,171.27l-15.13,15.75c-8.86,9.24-8.48,23.94,.87,32.69l15.92,14.13c-2.57-10.84,1.37-18.21,7.19-23.15,8.11-6.92,19.88-9.14,22.66-9.57,.39-.07,.61-.09,.61-.09l-21.43-19.88-5.6-5.2-4.99-4.62v-11.96c0-14.56,11.82-17.34,26.38-17.34h59.64l-117.63-111.4Z"/><path class="b" d="M840.43,482.6c-35.39-135.76-150.44-201.12-285.81-190.86l88.75,84.04-18.88,17.88-75.31-71.31c-20.75-19.65-48.24-30.61-76.83-30.61h-73.04l149.95,142.01h27.83c0,13.29-5.39,23.08-14.1,29.53-7.11,5.27-16.45,8.34-26.88,9.28l21.26,20.37-98.1,93.25-.06-.19-214.64,203.28h110.97c28.58,0,56.08-10.96,76.83-30.61l133.77-126.68,18.87,17.89c-16.32,15.46-134.21,127.12-147.19,139.4h73.04c28.58,0,56.08-10.96,76.83-30.61l56.1-53.13,18.88,17.88-69.54,65.86c40.1,.74,79.16-8.03,113.18-24.53l.11,.11,.29-.31h.01c102.49-47.94,161.9-169.32,133.72-281.94Z"/><path class="b" d="M459.67,460.18c-.23,.9-.34,1.84-.34,2.8,0,4.13,2.09,7.75,5.28,9.89,1.89,1.27,4.16,2,6.61,2s4.74-.73,6.62-2c3.18-2.14,5.27-5.76,5.27-9.89,0-3.1-1.18-5.91-3.12-8.03-2.17-2.38-5.3-3.87-8.77-3.87-5.6,0-10.31,3.88-11.55,9.09Z"/></g></svg>