<?xml version="1.0" encoding="UTF-8"?><svg id="a" width="100" xmlns="http://www.w3.org/2000/svg" viewBox="0 0 2000 3000"><defs><style>.b{fill:#ceff1a;}.c{fill:#161616;}</style></defs><rect class="b" x="0" y="0" width="2000" height="3000"/><g><g><path class="c" d="M601.83,218.86c-54.19-51.32-126.01-79.94-200.66-79.94H211.89c130.73,123.8,310.45,294.04,472.27,447.33l-39.52,41.14c-23.15,24.14-22.14,62.53,2.27,85.38l41.58,36.89c-6.72-28.32,3.59-47.56,18.79-60.46,21.18-18.07,51.92-23.87,59.18-25,1.02-.18,1.58-.24,1.58-.24l-55.98-51.92-14.64-13.59-13.03-12.07v-31.25c0-38.03,30.86-45.29,68.89-45.29h155.76L601.83,218.86Z"/><path class="c" d="M1768.18,637.42c-92.43-354.57-392.93-525.3-746.48-498.5l231.79,219.51-49.32,46.69-196.69-186.26c-54.19-51.32-126.01-79.94-200.66-79.94h-190.77l391.64,370.91h72.68c0,34.71-14.07,60.28-36.83,77.13-18.58,13.77-42.96,21.78-70.2,24.23l55.53,53.2-256.23,243.56-.15-.51L211.89,1438.39H501.72c74.65,0,146.47-28.62,200.66-79.94l349.37-330.88,49.29,46.72c-42.63,40.39-350.54,332.01-384.44,364.1h190.77c74.65,0,146.47-28.62,200.66-79.94l146.53-138.76,49.32,46.69-181.63,172.01c104.74,1.94,206.75-20.97,295.6-64.08l.3,.3,.75-.81h.03c267.7-125.2,422.86-442.25,349.25-736.38Z"/><path class="c" d="M773.69,578.87c-.6,2.36-.9,4.81-.9,7.32,0,10.78,5.47,20.25,13.8,25.84,4.93,3.32,10.87,5.23,17.27,5.23s12.37-1.91,17.3-5.23c8.3-5.59,13.77-15.06,13.77-25.84,0-8.1-3.08-15.44-8.16-20.97-5.68-6.21-13.83-10.1-22.91-10.1-14.64,0-26.92,10.13-30.17,23.75Z"/></g><g><path class="c" d="M1144.75,1814.01c-32.33-17.76-71.51-26.65-117.52-26.65s-84.61,9.04-119.26,27.09c-34.66,18.06-61.6,43.99-80.82,77.76-19.22,33.79-28.83,74.57-28.83,122.32s9.61,88.55,28.83,122.32c19.22,33.79,46.45,59.71,81.69,77.76,35.24,18.06,77.03,27.09,125.38,27.09,30.28,0,59.26-4.37,86.94-13.11,27.66-8.74,51.55-21.69,71.65-38.88,20.1-17.17,34.21-38.29,42.38-63.35l-118.83-39.32c-6.42,15.73-16.17,27.96-29.27,36.7-13.11,8.74-30.73,13.11-52.86,13.11-19.81,0-36.7-3.93-50.68-11.8-13.98-7.86-24.76-20.67-32.33-38.45-4.2-9.84-7.23-21.35-9.1-34.51h298.31c1.16-6.99,2.03-15.73,2.62-26.21,.57-10.48,.87-20.97,.87-31.45,0-40.19-8.45-75.87-25.34-107.03-16.9-31.15-41.5-55.62-73.83-73.39Zm-165.14,90.43c13.11-8.74,28.97-13.11,47.62-13.11,26.21,0,45.57,9.32,58.1,27.96,9.06,13.49,14.83,31.27,17.33,53.3h-159.56c1.64-10,3.91-19.03,6.8-27.09,6.69-18.64,16.6-32.33,29.71-41.07Z"/><polygon class="c" points="1630.83 2232.97 1788.11 1796.1 1634.33 1796.1 1542.59 2129 1452.59 1796.1 1296.19 1796.1 1453.47 2232.97 1630.83 2232.97"/><path class="c" d="M577.55,2426.94c-22.43-11.64-48.79-17.48-79.07-17.48s-59.13,7.43-83,22.28c-23.89,14.85-42.24,36.85-55.05,65.97v-195.2H211.89v552.56h148.54v-229.79c0-24.46,3.49-44.26,10.49-59.41,6.99-15.14,16.6-26.21,28.83-33.2,12.23-6.99,25.34-10.49,39.32-10.49,18.63,0,33.64,5.98,45,17.91,11.36,11.95,17.04,33.64,17.04,65.09v249.89h148.54v-290.96c0-34.36-6.42-62.91-19.22-85.63-12.82-22.72-30.45-39.89-52.86-51.55Z"/><path class="c" d="M1048.93,2652.36c0,16.9-1.9,31.6-5.68,44.12-3.8,12.53-9.18,22.72-16.16,30.58-6.99,7.86-15.16,13.69-24.47,17.48-9.33,3.8-19.22,5.68-29.71,5.68-20.4,0-36.12-5.53-47.18-16.6-11.07-11.06-16.6-30.58-16.6-58.54v-256.88h-148.54v291.83c0,36.7,6.4,66.4,19.22,89.12,12.8,22.72,30.43,39.18,52.86,49.37,22.42,10.18,48.49,15.29,78.2,15.29,35.52,0,65.82-7.43,90.87-22.28,25.04-14.85,44.56-37.71,58.54-68.59l4.37,82.13h132.81v-436.87h-148.54v234.16Z"/><path class="c" d="M1684.57,2436.55c-26.51-18.05-56.66-27.09-90.43-27.09-42.53,0-76.32,11.8-101.35,35.39-14.97,14.09-26.89,30.44-35.82,49v-191.34h-148.54v552.56h130.19l4.79-96.45c4.35,11.68,9.71,22.73,16.17,33.1,13.98,22.43,31.89,40.05,53.74,52.86,21.85,12.81,47.03,19.22,75.58,19.22,36.11,0,67.56-8.87,94.36-26.65,26.78-17.76,47.76-43.54,62.91-77.33,15.14-33.77,22.72-74.27,22.72-121.45s-7.43-89.56-22.28-123.63c-14.85-34.08-35.54-60.14-62.03-78.2Zm-86.94,289.65c-14.57,18.94-34.66,28.4-60.29,28.4-16.32,0-30.58-4.5-42.81-13.54-12.23-9.02-21.56-22.28-27.96-39.76-6.42-17.47-9.61-38.73-9.61-63.78s3.19-46.31,9.61-63.78c6.4-17.48,15.58-31.02,27.52-40.63,11.93-9.61,26.35-14.42,43.25-14.42,25.63,0,45.72,9.47,60.29,28.4,14.55,18.94,21.85,48.79,21.85,89.56s-7.29,70.64-21.85,89.56Z"/><path class="c" d="M475.42,1658.76H211.89v129.59h241.78c42.9,0,72.76,12.91,89.58,38.7,16.81,25.81,25.22,65.38,25.22,118.72s-8.41,92.93-25.22,118.72c-16.83,25.81-46.68,38.7-89.58,38.7h-64.36v-217.69h0c-97.99,0-177.42,79.44-177.42,177.42v169.86H475.42c89.87,0,158.29-25.07,205.26-75.23,46.96-50.15,70.45-120.74,70.45-211.78s-23.48-162.34-70.45-212.22c-46.97-49.86-115.39-74.8-205.26-74.8Z"/></g></g></svg>